<svg width="96" height="49" viewBox="0 0 96 49" fill="none" xmlns="http://www.w3.org/2000/svg">
<path d="M7.2031 15.9856L13.5595 29.5986H12.0863L9.95844 25.1246H4.0931L1.96522 29.5986H0.4375L6.87573 15.9856H7.2031ZM7.03942 18.8773L4.69328 23.8151H9.35827L7.03942 18.8773Z" fill="white"/>
<path d="M14.2383 27.0916L15.3841 26.4096C16.2025 27.91 17.13 28.6466 18.194 28.6466C19.2579 28.6466 19.0669 28.5375 19.4762 28.3192C19.8854 28.101 20.1855 27.8282 20.4037 27.4735C20.622 27.1189 20.7311 26.7369 20.7311 26.3277C20.7311 25.9185 20.5674 25.4275 20.2673 24.991C19.8308 24.3908 19.067 23.6542 17.9484 22.8085C16.8027 21.9628 16.0934 21.3354 15.8206 20.9535C15.3295 20.2987 15.1113 19.6167 15.1113 18.8801C15.1113 18.1436 15.2477 17.7343 15.5477 17.2706C15.8206 16.7795 16.2298 16.3976 16.7481 16.1248C17.2664 15.852 17.812 15.7156 18.4395 15.7156C19.067 15.7156 19.6944 15.8793 20.24 16.1793C20.7856 16.5067 21.3858 17.0796 22.0133 17.9253L20.8948 18.771C20.3764 18.089 19.9399 17.6525 19.5853 17.4343C19.2306 17.216 18.8214 17.1069 18.4122 17.1069C18.003 17.1069 17.4028 17.2706 17.0755 17.5979C16.7208 17.9253 16.5571 18.3345 16.5571 18.8256C16.5571 19.3166 16.6117 19.3985 16.7481 19.6985C16.8845 19.9714 17.1027 20.2714 17.4301 20.5988C17.6211 20.7625 18.194 21.2263 19.1761 21.9628C20.3491 22.8358 21.1676 23.5997 21.6041 24.2817C22.0405 24.9637 22.2588 25.6457 22.2588 26.3277C22.2588 27.3098 21.8769 28.1828 21.1403 28.8921C20.4037 29.6287 19.4762 29.9833 18.4122 29.9833C17.3483 29.9833 16.8299 29.7651 16.1752 29.3286C15.4932 28.8921 14.893 28.1555 14.3201 27.1189L14.2383 27.0916Z" fill="white"/>
<path d="M25.1484 16.0129H27.8492C29.4042 16.0129 30.4408 16.0674 30.9864 16.2038C31.7503 16.3948 32.405 16.7767 32.8961 17.3769C33.3871 17.9771 33.6327 18.7137 33.6327 19.6139C33.6327 20.5142 33.3871 21.278 32.9233 21.8509C32.4323 22.4511 31.7776 22.833 30.9319 23.0513C30.3044 23.1877 29.1586 23.2695 27.4672 23.2695H26.4851V29.5986H25.1211V15.9856L25.1484 16.0129ZM26.5124 17.3496V21.9601H28.804C29.7315 21.9873 30.4135 21.9055 30.85 21.7418C31.2865 21.5781 31.6139 21.3053 31.8594 20.9234C32.1049 20.5415 32.2413 20.1322 32.2413 19.6412C32.2413 19.1501 32.1049 18.7682 31.8594 18.3863C31.6139 18.0044 31.2865 17.7316 30.8773 17.5679C30.4681 17.4042 29.8134 17.3223 28.8858 17.3223H26.4851L26.5124 17.3496Z" fill="white"/>
<path d="M35.2461 23.9539H40.3476V25.0724H35.2461V23.9539Z" fill="white"/>
<path d="M0 34.7029L0.381927 34.4847C0.654733 34.9757 0.954827 35.2212 1.30948 35.2212C1.66412 35.2212 1.60956 35.194 1.74596 35.1121C1.88236 35.0303 1.99149 34.9484 2.04605 34.8393C2.12789 34.7302 2.15517 34.5938 2.15517 34.4574C2.15517 34.321 2.10061 34.1573 1.99149 34.0209C1.85509 33.8299 1.58228 33.5844 1.22763 33.2843C0.845699 33.0115 0.600172 32.7933 0.51833 32.6569C0.354647 32.4386 0.272806 32.2204 0.272806 31.9748C0.272806 31.7293 0.327368 31.5929 0.409209 31.4292C0.491051 31.2655 0.627454 31.1291 0.818419 31.0473C0.982103 30.9654 1.17307 30.9109 1.39131 30.9109C1.60956 30.9109 1.80053 30.9655 1.99149 31.0746C2.18246 31.1837 2.37341 31.3747 2.59166 31.6475L2.20973 31.9203C2.04605 31.702 1.88236 31.5383 1.77324 31.4838C1.66412 31.4019 1.52772 31.3747 1.39131 31.3747C1.25491 31.3747 1.06394 31.4292 0.954822 31.5383C0.845699 31.6475 0.791137 31.7839 0.791137 31.9476C0.791137 32.1112 0.79114 32.1385 0.845701 32.2476C0.900262 32.3295 0.95482 32.4386 1.06394 32.5477C1.1185 32.6023 1.30947 32.766 1.63684 33.0115C2.01877 33.3116 2.29157 33.5571 2.45526 33.7754C2.59166 33.9936 2.67351 34.2391 2.67351 34.4574C2.67351 34.7847 2.5371 35.0848 2.29157 35.3031C2.04605 35.5486 1.74596 35.6577 1.39131 35.6577C1.03667 35.6577 0.872978 35.5759 0.654733 35.4395C0.436488 35.3031 0.218247 35.0576 0.0272823 34.7029H0Z" fill="white"/>
<path d="M7.99206 32.0837C8.51039 32.0837 8.94688 32.2747 9.27425 32.6566C9.57433 33.0113 9.73802 33.3932 9.73802 33.857C9.73802 34.3208 9.57433 34.73 9.24696 35.0846C8.9196 35.4393 8.51039 35.6029 7.99206 35.6029C7.47373 35.6029 7.06452 35.4393 6.73715 35.0846C6.40978 34.73 6.24609 34.3208 6.24609 33.857C6.24609 33.3932 6.40978 32.984 6.70987 32.6566C7.03724 32.2747 7.47373 32.0837 7.99206 32.0837ZM7.99206 32.5202C7.63741 32.5202 7.33732 32.6566 7.06451 32.9294C6.79171 33.2022 6.68259 33.5023 6.68259 33.8843C6.68259 34.2662 6.73715 34.348 6.84627 34.5663C6.95539 34.7845 7.11908 34.9482 7.31004 35.0573C7.50101 35.1664 7.71925 35.221 7.96478 35.221C8.2103 35.221 8.42855 35.1664 8.61951 35.0573C8.81048 34.9482 8.97416 34.7845 9.08329 34.5663C9.19241 34.348 9.24696 34.1298 9.24696 33.8843C9.24696 33.5023 9.11056 33.175 8.86504 32.9294C8.61951 32.6839 8.29214 32.5202 7.9375 32.5202H7.99206Z" fill="white"/>
<path d="M13.3398 30.8831H13.7763V35.548H13.3398V30.8831Z" fill="white"/>
<path d="M17.4882 32.1931H17.9247V33.7481C17.9247 34.13 17.9247 34.4028 17.9793 34.5393C18.0338 34.7575 18.1702 34.8939 18.3339 35.0303C18.4976 35.1394 18.7158 35.2213 18.9614 35.2213C19.2069 35.2213 19.3979 35.1667 19.5615 35.0576C19.7252 34.9485 19.8344 34.7848 19.9162 34.5938C19.9708 34.4574 19.9708 34.1846 19.9708 33.7754V32.2204H20.4073V33.8572C20.4073 34.321 20.3527 34.6757 20.2436 34.8939C20.1344 35.1394 19.9708 35.3031 19.7525 35.4395C19.5343 35.5759 19.2615 35.6305 18.9341 35.6305C18.6067 35.6305 18.3339 35.5759 18.1157 35.4395C17.8974 35.3031 17.7337 35.1121 17.6246 34.8939C17.5155 34.6484 17.4609 34.2937 17.4609 33.83V32.2204L17.4882 32.1931Z" fill="white"/>
<path d="M24.608 30.938H25.0445V32.1929H25.7265V32.5748H25.0445V35.5484H24.608V32.5748H24.0078V32.1929H24.608V30.938Z" fill="white"/>
<path d="M29.382 30.8015C29.4911 30.8015 29.573 30.8288 29.6275 30.9106C29.7094 30.9925 29.7367 31.0743 29.7367 31.1562C29.7367 31.238 29.7094 31.3471 29.6275 31.4017C29.5457 31.4835 29.4638 31.5108 29.382 31.5108C29.3001 31.5108 29.191 31.4835 29.1365 31.4017C29.0546 31.3198 29.0273 31.238 29.0273 31.1562C29.0273 31.0743 29.0546 30.9652 29.1365 30.9106C29.2183 30.8288 29.3001 30.8015 29.382 30.8015ZM29.1637 32.1928H29.6002V35.5483H29.1637V32.1928Z" fill="white"/>
<path d="M34.9452 32.0837C35.4635 32.0837 35.9 32.2747 36.2274 32.6566C36.5275 33.0113 36.6912 33.3932 36.6912 33.857C36.6912 34.3208 36.5275 34.73 36.2001 35.0846C35.8727 35.4393 35.4635 35.6029 34.9452 35.6029C34.4269 35.6029 34.0177 35.4393 33.6903 35.0846C33.3629 34.73 33.1992 34.3208 33.1992 33.857C33.1992 33.3932 33.3629 32.984 33.663 32.6566C33.9904 32.2747 34.4269 32.0837 34.9452 32.0837ZM34.9452 32.5202C34.5905 32.5202 34.2904 32.6566 34.0176 32.9294C33.7721 33.2022 33.6357 33.5023 33.6357 33.8843C33.6357 34.2662 33.6903 34.348 33.7994 34.5663C33.9085 34.7845 34.0722 34.9482 34.2632 35.0573C34.4541 35.1664 34.6724 35.221 34.9179 35.221C35.1634 35.221 35.3817 35.1664 35.5726 35.0573C35.7636 34.9482 35.9273 34.7845 36.0364 34.5663C36.1455 34.348 36.2001 34.1298 36.2001 33.8843C36.2001 33.5023 36.0637 33.175 35.8182 32.9294C35.5726 32.6566 35.2453 32.5202 34.8906 32.5202H34.9452Z" fill="white"/>
<path d="M40.3749 32.1929H40.8114V32.7931C40.9751 32.5749 41.1661 32.3839 41.3843 32.2748C41.6026 32.1656 41.8208 32.1111 42.0663 32.1111C42.3119 32.1111 42.5301 32.1656 42.7211 32.302C42.912 32.4384 43.0484 32.6021 43.1576 32.8204C43.2394 33.0386 43.294 33.366 43.294 33.8298V35.5484H42.8575V33.9389C42.8575 33.557 42.8575 33.2841 42.8029 33.175C42.7484 32.9568 42.6665 32.7931 42.5028 32.684C42.3664 32.5748 42.1755 32.5203 41.9572 32.5203C41.739 32.5203 41.4662 32.6021 41.2479 32.7658C41.0297 32.9295 40.8933 33.1477 40.8387 33.4206C40.7841 33.5842 40.7842 33.8843 40.7842 34.3208V35.5484H40.3477V32.1929H40.3749Z" fill="white"/>
<path d="M48.7766 32.5472L48.5038 32.8473C48.2856 32.6291 48.0401 32.5199 47.8218 32.5199C47.6036 32.5199 47.549 32.5745 47.4672 32.6563C47.3853 32.7382 47.3308 32.8473 47.3308 32.9837C47.3308 33.1201 47.3853 33.2019 47.4672 33.2838C47.549 33.3929 47.7127 33.502 47.9855 33.6384C48.3129 33.8021 48.5311 33.9658 48.6402 34.1295C48.7494 34.2932 48.8039 34.4569 48.8039 34.6478C48.8039 34.8388 48.6948 35.1662 48.5038 35.3571C48.3129 35.5481 48.0673 35.6572 47.7673 35.6572C47.4672 35.6572 47.3853 35.6026 47.2216 35.5208C47.058 35.439 46.8943 35.3298 46.7852 35.1662L47.058 34.8661C47.2762 35.1116 47.5217 35.248 47.7673 35.248C48.0128 35.248 48.0946 35.1934 48.2037 35.0843C48.3129 34.9752 48.3947 34.8388 48.3947 34.7024C48.3947 34.566 48.3674 34.4569 48.2856 34.375C48.2037 34.2932 48.0128 34.1568 47.74 34.0204C47.4399 33.8567 47.2216 33.7203 47.1125 33.5566C47.0034 33.3929 46.9488 33.2292 46.9488 33.0383C46.9488 32.8473 47.0307 32.5745 47.2216 32.4108C47.3853 32.2471 47.6036 32.1653 47.8764 32.1653C48.1492 32.1653 48.5038 32.329 48.8039 32.6291L48.7766 32.5472Z" fill="white"/>
<path d="M56.5274 36.831L56.8275 37.1856C56.9639 37.322 57.0457 37.4584 57.073 37.5403C57.1003 37.6221 57.1276 37.7313 57.073 37.8404C57.073 37.9495 56.9912 38.0313 56.9093 38.0859C56.8275 38.1405 56.7456 38.195 56.6638 38.195C56.582 38.195 56.4728 38.195 56.3637 38.1677C56.4183 38.2769 56.4456 38.386 56.4456 38.4678C56.4456 38.5497 56.4456 38.6315 56.4183 38.7134C56.391 38.7952 56.3364 38.8498 56.2819 38.9043C56.1455 39.0134 55.9818 39.068 55.8181 39.0407C55.6271 39.0407 55.4634 38.9316 55.2998 38.7406L54.8633 38.2496L56.4728 36.8037L56.5274 36.831ZM55.8454 37.7585L55.2179 38.3041L55.4089 38.5224C55.518 38.6588 55.6271 38.7406 55.709 38.7679C55.7908 38.7952 55.8727 38.8225 55.9545 38.8225C56.0363 38.8225 56.1182 38.7952 56.1727 38.7406C56.2546 38.6861 56.2819 38.6042 56.2819 38.4951C56.2819 38.386 56.2819 38.3041 56.2 38.195C56.1728 38.1132 56.0636 38.0041 55.9272 37.8677L55.8454 37.7585ZM56.5274 37.1311L56.0091 37.5948L56.0909 37.704C56.2 37.8131 56.2819 37.8949 56.3637 37.9495C56.4456 37.9768 56.5001 38.0041 56.582 38.0041C56.6638 38.0041 56.7184 37.9768 56.7729 37.9222C56.8548 37.8677 56.8821 37.7858 56.8821 37.6767C56.8821 37.5949 56.8275 37.4857 56.6911 37.3493L56.5001 37.1584L56.5274 37.1311Z" fill="white"/>
<path d="M58.1646 38.5767L59.174 39.4769L59.0376 39.6406L58.1919 38.904L57.7281 39.4224L58.5738 40.1589L58.4374 40.3226L57.5917 39.586L57.0188 40.2135L57.8645 40.9501L57.7281 41.1138L56.7188 40.2135L58.1646 38.5767Z" fill="white"/>
<path d="M60.9756 40.8141L61.1938 40.9232L60.8664 42.5328L62.2032 41.4688H62.2577L62.0941 43.1875L63.2671 42.0417L63.4854 42.1508L61.8485 43.7331H61.8213L61.9849 41.9326L60.5664 43.0238H60.5391L60.9756 40.7595V40.8141Z" fill="white"/>
<path d="M64.3575 42.4778L64.5758 42.5596L63.7846 44.5784L63.5664 44.4965L64.3575 42.4778Z" fill="white"/>
<path d="M65.3124 43.0777L65.367 42.8867L66.6219 43.2414L66.5673 43.4323L66.049 43.2959L65.5034 45.1783L65.2852 45.0964L65.8308 43.2141L65.3124 43.0777Z" fill="white"/>
<path d="M67.4406 43.4321H67.6861C67.6861 43.4594 67.5224 44.3597 67.5224 44.3597L68.7228 44.5506L68.8865 43.6504H69.132C69.132 43.6777 68.7773 45.8328 68.7773 45.8328H68.5318C68.5318 45.8055 68.6955 44.7689 68.6955 44.7689L67.4951 44.5779L67.3315 45.6146H67.0859C67.0859 45.5873 67.4406 43.4321 67.4406 43.4321Z" fill="white"/>
<path d="M71.4219 44.0602V43.842L72.7041 43.8147V44.0329H72.1857L72.2403 45.9971H71.9948L71.9402 44.0329H71.4219V44.0602Z" fill="white"/>
<path d="M73.5508 43.7596H73.7963C73.7963 43.7323 73.9327 44.6326 73.9327 44.6326L75.1331 44.4689L74.9967 43.5686H75.2422C75.2422 43.5413 75.5423 45.6965 75.5423 45.6965H75.2967C75.2967 45.7238 75.1331 44.6871 75.1331 44.6871L73.9327 44.8508L74.0964 45.8875H73.8509C73.8509 45.9148 73.5508 43.7596 73.5508 43.7596Z" fill="white"/>
<path d="M76.2772 43.2687L77.5867 42.9141L77.6413 43.1323L76.55 43.4324L76.741 44.0871L77.8049 43.787L77.8595 44.0053L76.7956 44.3054L77.0138 45.1238L78.0777 44.8237L78.1323 45.042L76.8228 45.3966L76.2227 43.296L76.2772 43.2687Z" fill="white"/>
<path d="M81.9265 41.3868L81.8174 41.5777C81.681 41.5232 81.5173 41.4959 81.3536 41.4959C81.1899 41.4959 81.0535 41.5505 80.8899 41.6323C80.7262 41.7141 80.5898 41.8505 80.4806 41.9869C80.3715 42.1234 80.3169 42.287 80.3169 42.4507C80.3169 42.6144 80.317 42.7781 80.4261 42.9418C80.5625 43.1873 80.7534 43.3237 80.999 43.3783C81.2445 43.4328 81.5173 43.3783 81.7901 43.2691C82.0902 43.1055 82.2812 42.8872 82.363 42.5598H82.5812C82.554 42.7508 82.4721 42.9145 82.3357 43.0782C82.2266 43.2146 82.0629 43.351 81.8719 43.4601C81.5173 43.6511 81.1627 43.7056 80.8353 43.5965C80.5625 43.5147 80.3442 43.3237 80.2078 43.0509C80.0714 42.7781 80.0441 42.478 80.1533 42.1779C80.2624 41.8778 80.4806 41.6323 80.808 41.4686C80.999 41.3595 81.1899 41.3049 81.3809 41.3049C81.5719 41.3049 81.7628 41.3049 81.9265 41.3868Z" fill="white"/>
<path d="M82.5273 40.4863L82.7183 40.3499L83.2639 41.0864L84.2187 40.3771L83.6731 39.6406L83.8641 39.5042L85.1736 41.2501L84.9826 41.3865L84.3551 40.5408L83.4003 41.2501L84.0278 42.0958L83.8368 42.2322L82.5273 40.4863Z" fill="white"/>
<path d="M85.3632 38.113L87.6821 38.8769L87.4911 39.0679L86.7272 38.8223L86.018 39.5316L86.2635 40.2955L86.0725 40.4864L85.3359 38.1676L85.3905 38.113H85.3632ZM85.6633 38.4677L85.9361 39.3134L86.509 38.7405L85.6633 38.4677Z" fill="white"/>
<path d="M88.4452 37.9491L86.6992 36.6669V36.6124C86.7265 36.6124 89.0181 36.3396 89.0181 36.3396L87.6813 35.3575L87.8177 35.1665L89.5637 36.4487V36.5033C89.5364 36.5033 87.2721 36.7761 87.2721 36.7761L88.6089 37.7582L88.4725 37.9491H88.4452Z" fill="white"/>
<path d="M89.7553 32.4111L89.8098 32.6566C89.6462 32.7112 89.5098 32.793 89.3734 32.9294C89.2369 33.0385 89.1551 33.1749 89.0733 33.284C88.9914 33.4477 88.9369 33.6387 88.9369 33.8024C88.9369 33.9933 88.9641 34.157 89.0733 34.2934C89.1824 34.4298 89.2642 34.539 89.4006 34.6208C89.537 34.7026 89.7007 34.7299 89.8917 34.7026C90.0554 34.7026 90.2191 34.6208 90.3827 34.5117C90.5464 34.4026 90.6555 34.2661 90.7374 34.0752C90.8465 33.8569 90.9011 33.6387 90.8465 33.4477C90.792 33.2568 90.7101 33.0658 90.5464 32.9567L90.1918 33.6387L90.0008 33.5296L90.4646 32.6293C90.7647 32.793 90.9556 33.0112 91.0375 33.284C91.1193 33.5569 91.0647 33.8569 90.9011 34.1843C90.7101 34.5662 90.41 34.8118 90.0554 34.9209C89.7826 35.0027 89.5097 34.9754 89.2642 34.839C89.0733 34.7572 88.9369 34.5935 88.8277 34.4298C88.7186 34.2662 88.6641 34.0479 88.6641 33.8297C88.6641 33.6114 88.7186 33.3932 88.8277 33.1749C88.9096 32.984 89.046 32.8476 89.1824 32.7112C89.3188 32.5747 89.5098 32.4929 89.7007 32.3838L89.7553 32.4111Z" fill="white"/>
<path d="M89.8086 31.2385L90.2451 29.9563L90.4361 30.0381L90.0814 31.1021L90.7361 31.3203L91.0908 30.2837L91.2818 30.3655L90.9271 31.4022L91.7455 31.675L92.1002 30.6383L92.2911 30.7202L91.8546 32.0023L89.8086 31.2931V31.2385Z" fill="white"/>
<path d="M71.7194 48.7253C63.3442 48.7253 55.7057 44.4968 51.2317 37.4311L52.4593 36.6673C56.6605 43.3237 63.8626 47.3067 71.7467 47.3067C84.3231 47.3067 94.526 37.0765 94.526 24.5274C94.526 11.9783 84.2958 1.74805 71.7467 1.74805C59.1976 1.74805 55.2146 6.60401 51.3408 14.379L50.0586 13.7243C52.0501 9.74128 55.0782 6.38576 58.8429 4.01235C62.7168 1.55709 67.1908 0.274902 71.774 0.274902C85.1415 0.274902 95.9992 11.1326 95.9992 24.5001C95.9992 37.8676 85.1415 48.7253 71.774 48.7253H71.7194Z" fill="white"/>
<path d="M71.5554 42.505C66.6722 42.505 62.1163 40.5954 58.7063 37.1034L58.9518 36.8579C62.3073 40.268 66.7813 42.1504 71.5554 42.1504C81.2946 42.1504 89.2333 34.2117 89.2333 24.4725C89.2333 14.7333 81.2946 6.79465 71.5554 6.79465C61.8163 6.79465 60.2885 9.65912 56.9876 14.4605L56.6875 14.2695C60.0703 9.38631 65.6083 6.46729 71.5554 6.46729C81.5129 6.46729 89.5879 14.5696 89.5879 24.4998C89.5879 34.4299 81.4856 42.5323 71.5554 42.5323V42.505Z" fill="white"/>
<path d="M42.668 16.0156H45.3688C46.8692 16.0156 47.9059 16.0702 48.4515 16.2066C49.2699 16.3975 49.9246 16.7795 50.4157 17.4069C50.934 18.0071 51.1795 18.771 51.1795 19.6439C51.1795 20.5169 51.0158 21.0353 50.6612 21.6082C50.3065 22.181 49.8155 22.5903 49.1608 22.8903C48.506 23.1904 47.6058 23.3268 46.4873 23.3268L51.3705 29.6559H49.6791L44.7959 23.3268H44.032V29.6559H42.668V16.0429V16.0156ZM44.032 17.3524V21.9901H46.3781C47.2784 21.9901 47.9604 21.9355 48.3969 21.7446C48.8334 21.5809 49.1608 21.3081 49.4063 20.9261C49.6518 20.5442 49.7609 20.135 49.7609 19.6439C49.7609 19.1529 49.6245 18.771 49.379 18.389C49.1335 18.0071 48.8061 17.7616 48.3969 17.5979C47.9877 17.4342 47.333 17.3524 46.4054 17.3524H44.0047H44.032Z" fill="white"/>
<path d="M66.8169 18.4797L65.7529 19.2981C65.1527 18.5343 64.4434 17.9341 63.625 17.5522C62.8066 17.143 61.8791 16.952 60.897 16.952C59.9148 16.952 58.7963 17.2248 57.8688 17.7431C56.9413 18.2615 56.232 18.9708 55.7136 19.8437C55.1953 20.7167 54.9498 21.6988 54.9498 22.8173C54.9498 24.4814 55.5227 25.8728 56.6685 26.964C57.8142 28.0825 59.2328 28.6281 60.9788 28.6281C62.7247 28.6281 64.4707 27.8915 65.7529 26.3911L66.8169 27.2095C66.1348 28.0825 65.2891 28.7372 64.2798 29.201C63.2704 29.6648 62.1246 29.9103 60.8697 29.9103C58.4963 29.9103 56.6139 29.1191 55.2226 27.5369C54.0768 26.2001 53.5039 24.5906 53.5039 22.6809C53.5039 20.7713 54.2132 18.998 55.6045 17.6613C56.9958 16.2973 58.7418 15.6152 60.8697 15.6152C62.9976 15.6152 63.2976 15.8608 64.307 16.3791C65.3437 16.8701 66.1621 17.5794 66.8169 18.507V18.4797Z" fill="white"/>
<path d="M69.9779 21.935L68.8867 29.6009H70.1962L71.0692 23.1899C70.6327 22.8353 70.2508 22.3988 69.9779 21.9077V21.935Z" fill="white"/>
<path d="M82.2786 16.0156H82.0603L77.75 24.8C78.0228 25.3456 78.2138 25.9458 78.241 26.5732L81.542 19.8895L82.8788 29.6287H84.2155L82.2513 16.0156H82.2786Z" fill="white"/>
<path d="M71.068 9.54956C71.068 9.54956 65.6665 15.0875 71.1499 22.5351C74.9964 27.7457 75.924 28.5642 75.9513 36.1209C75.9513 36.1209 81.0255 29.5735 74.9964 22.0168C69.7858 15.4967 71.259 11.6774 71.0953 9.54956H71.068Z" fill="white"/>
<path d="M71.9119 11.9509C71.9119 11.9509 71.7755 14.679 72.8395 16.2886C73.9034 17.8981 75.8676 19.6986 76.2496 22.3994C76.2496 22.3994 76.5496 18.7165 74.6946 16.4795C74.6946 16.4795 73.0032 14.7881 71.9119 11.9509Z" fill="#D4D7D6"/>
</svg>
