<svg width="21" height="21" viewBox="0 0 21 21" fill="none" xmlns="http://www.w3.org/2000/svg">
<path d="M3.42578 5.46712H5.09245M5.09245 5.46712H18.4258M5.09245 5.46712V17.1338C5.09245 17.5758 5.26804 17.9997 5.5806 18.3123C5.89316 18.6249 6.31709 18.8005 6.75911 18.8005H15.0924C15.5345 18.8005 15.9584 18.6249 16.271 18.3123C16.5835 17.9997 16.7591 17.5758 16.7591 17.1338V5.46712H5.09245ZM7.59245 5.46712V3.80046C7.59245 3.35843 7.76804 2.93451 8.0806 2.62194C8.39316 2.30938 8.81709 2.13379 9.25911 2.13379H12.5924C13.0345 2.13379 13.4584 2.30938 13.771 2.62194C14.0835 2.93451 14.2591 3.35843 14.2591 3.80046V5.46712M9.25911 9.63379V14.6338M12.5924 9.63379V14.6338" stroke="#D92D20" stroke-width="2" stroke-linecap="round" stroke-linejoin="round"/>
</svg>
